<svg width="640" height="355" viewBox="0 0 640 355" fill="none" xmlns="http://www.w3.org/2000/svg">
<g clip-path="url(#clip0_9428_67191)">
<path opacity="0.22" fill-rule="evenodd" clip-rule="evenodd" d="M533.638 192.985L505.448 176.592L505.448 190.824L505.448 190.824V199.113L421.776 150.469L421.776 95.7676L533.54 160.305L505.526 176.592L533.638 192.935V192.985Z" fill="url(#paint0_linear_9428_67191)"/>
<rect opacity="0.08" width="89.1021" height="118.939" transform="matrix(4.37114e-08 1 0.865988 -0.500065 534 160.221)" fill="url(#paint1_linear_9428_67191)"/>
<rect opacity="0.62" width="129.341" height="119.869" transform="matrix(0.864518 0.502602 -0.864518 0.502602 525.454 35.3857)" fill="url(#paint2_linear_9428_67191)" fill-opacity="0.1"/>
<path opacity="0.27" fill-rule="evenodd" clip-rule="evenodd" d="M327.851 456.47V325.069L130.295 210.99L130.295 262.132L153.765 275.777L153.889 275.705V356.016L327.851 456.47Z" fill="url(#paint3_linear_9428_67191)"/>
<rect opacity="0.08" width="88.2756" height="228.079" transform="matrix(4.37114e-08 1 0.865988 -0.500065 327.851 324.857)" fill="url(#paint4_linear_9428_67191)"/>
<rect opacity="0.62" width="228.46" height="228.46" transform="matrix(0.864518 0.502602 -0.864518 0.502602 327.828 96.0176)" fill="url(#paint5_linear_9428_67191)" fill-opacity="0.1"/>
<g style="mix-blend-mode:multiply" opacity="0.81">
<rect width="67.9896" height="96.1996" transform="matrix(-0.866025 -0.5 0.866063 -0.499935 375.34 286.104)" fill="url(#paint6_linear_9428_67191)" fill-opacity="0.5"/>
</g>
<g style="mix-blend-mode:multiply">
<rect width="63.425" height="96.1999" transform="matrix(-0.866025 -0.5 0.866063 -0.499935 371.426 283.82)" fill="url(#paint7_linear_9428_67191)" fill-opacity="0.5"/>
</g>
<path fill-rule="evenodd" clip-rule="evenodd" d="M276.934 145.702L232.149 171.557L316.142 220.046L400.123 171.564L354.678 145.329L315.504 168.11V168.132L315.485 168.121L315.422 168.158V168.084L276.934 145.702Z" fill="url(#paint8_linear_9428_67191)" fill-opacity="0.1"/>
<rect opacity="0.81" width="32.1759" height="97.0048" transform="matrix(-4.37114e-08 1 -0.865988 -0.500065 316.153 220.065)" fill="url(#paint9_linear_9428_67191)" fill-opacity="0.4"/>
<rect width="32.1759" height="97.0048" transform="matrix(4.37114e-08 1 0.865988 -0.500065 316.138 220.04)" fill="url(#paint10_linear_9428_67191)" fill-opacity="0.5"/>
<g opacity="0.78">
<path d="M316.075 200.288V207.58L256.989 173.786L257.011 166.506L316.075 200.288Z" fill="#F8D33A"/>
<path d="M316.075 197.894L257.018 164.116L257.038 157.225L316.075 190.993V197.894Z" fill="#F8D33A"/>
</g>
<path d="M316.074 207.546L375.116 173.494L375.167 156.732L316.074 190.814V197.742L375.116 163.689L375.116 166.114L316.074 200.165V207.546Z" fill="url(#paint11_linear_9428_67191)"/>
<path opacity="0.3" fill-rule="evenodd" clip-rule="evenodd" d="M287.219 151.683L278.098 156.949L316.512 179.125L354.16 157.391L344.011 151.532L315.504 168.11V168.131L315.485 168.121L315.422 168.158V168.084L287.219 151.683Z" fill="#5E6673"/>
<rect opacity="0.33" width="21.7162" height="22.027" transform="matrix(0.862373 0.506274 -0.862373 0.506274 206.585 200.04)" fill="#E6E8EA"/>
<rect opacity="0.23" width="17.7666" height="21.7328" transform="matrix(-4.29839e-08 1 -0.862315 -0.506372 206.301 222.182)" fill="#AEB4BC"/>
<rect opacity="0.21" width="18.0121" height="21.8436" transform="matrix(-4.29839e-08 1 -0.862315 -0.506372 225.316 211.047)" fill="#CACED3"/>
<rect opacity="0.4" width="17.9142" height="22.0516" transform="matrix(4.29839e-08 1 0.862315 -0.506373 206.301 222.195)" fill="#929AA5"/>
<g style="mix-blend-mode:screen" opacity="0.62">
<rect width="21.8799" height="21.8281" transform="matrix(0.862373 0.506274 -0.862373 0.506274 206.36 217.859)" fill="url(#paint12_linear_9428_67191)"/>
</g>
<rect opacity="0.82" width="15.3301" height="60.4586" transform="matrix(-4.34056e-08 1 -0.864461 -0.502701 239.053 334.509)" fill="#AEB4BC"/>
<rect opacity="0.82" width="15.3489" height="61.4039" transform="matrix(4.34056e-08 1 0.864461 -0.5027 239.002 334.551)" fill="#76808F"/>
<path opacity="0.22" fill-rule="evenodd" clip-rule="evenodd" d="M206.309 292.815V302.051L239.398 321.159L239.398 302.861L239.45 302.892L239.45 321.159L272.539 302.051L272.539 292.323L292.075 303.681L239.1 334.479L186.872 304.115L206.309 292.815Z" fill="#F5F5F5"/>
<rect opacity="0.29" width="38.3035" height="38.3035" transform="matrix(0.864518 0.502602 -0.864518 0.502602 239.45 264.389)" fill="#E6E8EA"/>
<rect opacity="0.44" width="18.428" height="38.2095" transform="matrix(-4.37114e-08 1 -0.865988 -0.500065 239.398 302.73)" fill="#76808F"/>
<rect opacity="0.19" width="18.4281" height="38.2095" transform="matrix(4.37114e-08 1 0.865988 -0.500065 239.45 302.73)" fill="#474D57"/>
<rect opacity="0.82" width="6.26034" height="26.0454" transform="matrix(-4.34056e-08 1 -0.864461 -0.502701 239.514 290.653)" fill="#F0B90B"/>
<path d="M216.999 277.603L214.107 252.609L228.127 284.058L216.999 277.603Z" fill="#F0B90B"/>
<path d="M216.999 277.603L214.107 252.609L228.127 284.058L216.999 277.603Z" fill="#F8D33A"/>
<path d="M228.127 284.058L214.107 252.609H214.881L228.153 270.632V284.058H228.127Z" fill="#D0980B"/>
<path d="M261.977 277.603L264.869 252.609L250.849 284.058L261.977 277.603Z" fill="#F0B90B"/>
<path d="M250.849 284.058L264.869 252.609H264.095L250.823 270.632V284.058H250.849Z" fill="#F8D33A"/>
<rect x="228.153" y="270.632" width="22.6701" height="13.4265" fill="#F8D33A"/>
<rect x="228.153" y="270.632" width="22.6701" height="13.4265" fill="url(#paint13_linear_9428_67191)"/>
<path d="M238.119 239.338H239.514V270.632H228.101L238.119 239.338Z" fill="#F8D33A"/>
<path d="M238.119 267.533H239.514V290.668L228.101 284.058L238.119 267.533Z" fill="#F8D33A"/>
<rect width="3.8219" height="3.87661" transform="matrix(0.862373 0.506274 -0.862373 0.506274 213.805 247.972)" fill="#FCEA9C"/>
<rect opacity="0.76" width="3.1268" height="3.82484" transform="matrix(-4.29839e-08 1 -0.862315 -0.506372 213.755 251.869)" fill="#F8D33A"/>
<rect width="3.15279" height="3.88094" transform="matrix(4.29839e-08 1 0.862315 -0.506372 213.755 251.871)" fill="#F0B90B"/>
<rect opacity="0.19" width="3.85072" height="3.8416" transform="matrix(0.862373 0.506274 -0.862373 0.506274 213.766 251.108)" fill="#FCEA9C"/>
<rect opacity="0.82" width="6.26034" height="26.0454" transform="matrix(4.34056e-08 1 0.864461 -0.502701 239.462 290.653)" fill="#F0B90B"/>
<path d="M240.857 239.338H239.462V270.632H250.875L240.857 239.338Z" fill="#D0980B"/>
<path d="M240.857 239.338H239.462V270.632H250.875L240.857 239.338Z" fill="url(#paint14_linear_9428_67191)"/>
<path d="M240.857 267.533H239.462V290.668L250.875 284.058L240.857 267.533Z" fill="#F8D33A"/>
<path d="M240.857 267.533H239.462V290.668L250.875 284.058L240.857 267.533Z" fill="url(#paint15_linear_9428_67191)"/>
<rect width="3.8219" height="3.87661" transform="matrix(-0.862373 0.506274 0.862373 0.506274 265.119 247.972)" fill="#FCEA9C"/>
<rect opacity="0.76" width="3.1268" height="3.82484" transform="matrix(4.29839e-08 1 0.862315 -0.506372 265.169 251.869)" fill="#F8D33A"/>
<rect width="3.15279" height="3.88094" transform="matrix(-4.29839e-08 1 -0.862315 -0.506372 265.169 251.871)" fill="#F0B90B"/>
<rect opacity="0.19" width="3.85072" height="3.8416" transform="matrix(-0.862373 0.506274 0.862373 0.506274 265.159 251.108)" fill="#FCEA9C"/>
<rect width="3.8219" height="3.87661" transform="matrix(-0.862373 0.506274 0.862373 0.506274 239.454 233.822)" fill="#FCEA9C"/>
<rect opacity="0.76" width="3.1268" height="3.82484" transform="matrix(4.29839e-08 1 0.862315 -0.506372 239.504 237.72)" fill="#F8D33A"/>
<rect width="3.15279" height="3.88094" transform="matrix(-4.29839e-08 1 -0.862315 -0.506372 239.504 237.722)" fill="#F0B90B"/>
<rect opacity="0.19" width="3.85072" height="3.8416" transform="matrix(-0.862373 0.506274 0.862373 0.506274 239.493 236.959)" fill="#FCEA9C"/>
<rect width="3.8219" height="3.87661" transform="matrix(-0.862373 0.506274 0.862373 0.506274 239.454 262.69)" fill="#FCEA9C"/>
<rect opacity="0.76" width="3.1268" height="3.82484" transform="matrix(4.29839e-08 1 0.862315 -0.506372 239.504 266.587)" fill="#F8D33A"/>
<rect width="3.15279" height="3.88094" transform="matrix(-4.29839e-08 1 -0.862315 -0.506372 239.504 266.59)" fill="#F0B90B"/>
<rect opacity="0.19" width="3.85072" height="3.8416" transform="matrix(-0.862373 0.506274 0.862373 0.506274 239.493 265.826)" fill="#FCEA9C"/>
<path opacity="0.31" fill-rule="evenodd" clip-rule="evenodd" d="M239.411 264.543L239.411 198.165L272.564 179.126L272.564 283.583L239.411 264.543Z" fill="url(#paint16_linear_9428_67191)"/>
<path opacity="0.49" fill-rule="evenodd" clip-rule="evenodd" d="M239.462 264.615L239.462 198.16L206.309 179.121L206.309 283.628L206.332 283.641L239.462 264.615Z" fill="url(#paint17_linear_9428_67191)"/>
<g opacity="0.71">
<rect opacity="0.82" width="52.0651" height="97.8292" transform="matrix(-4.34056e-08 1 -0.864461 -0.502701 315.504 115.587)" fill="#AEB4BC"/>
<path opacity="0.21" fill-rule="evenodd" clip-rule="evenodd" d="M401.315 146.278V65.7858L401.237 65.7409L332.019 105.982L401.315 146.278ZM316.314 16.8494L316.738 16.603L316.314 16.3564L316.314 16.8494Z" fill="#CACED3"/>
<rect opacity="0.38" width="104.62" height="99.2641" transform="matrix(4.34056e-08 1 0.864461 -0.5027 315.504 115.607)" fill="url(#paint18_linear_9428_67191)"/>
<rect opacity="0.82" width="52.0228" height="99.3589" transform="matrix(4.34056e-08 1 0.864461 -0.5027 315.422 115.655)" fill="#76808F"/>
<rect opacity="0.22" width="97.7542" height="99.1534" transform="matrix(0.864518 0.502602 -0.864518 0.502602 316.788 16.5732)" fill="#F5F5F5"/>
</g>
<path fill-rule="evenodd" clip-rule="evenodd" d="M377.547 66.4329L357.207 54.6906L357.381 78.0748L377.547 66.4329ZM256.029 66.1319L276.369 77.8742L276.195 54.4899L256.029 66.1319Z" fill="#76808F"/>
<path fill-rule="evenodd" clip-rule="evenodd" d="M340.315 52.6984C353.421 60.2643 353.512 72.4787 340.518 79.98C327.524 87.4813 306.366 87.4289 293.261 79.8629C280.155 72.297 280.064 60.0826 293.058 52.5813C306.051 45.08 327.209 45.1324 340.315 52.6984ZM306.705 72.1016L306.618 60.4095L326.871 60.4597L326.958 72.1518L306.705 72.1016Z" fill="url(#paint19_linear_9428_67191)"/>
<path d="M296.708 89.6156L317.048 101.358L337.215 89.7159L296.708 89.6156Z" fill="url(#paint20_linear_9428_67191)"/>
<path d="M336.867 42.9474L316.527 31.2051L296.361 42.847L336.867 42.9474Z" fill="url(#paint21_linear_9428_67191)"/>
<path opacity="0.23" d="M629.137 413.235L629.137 495L421.27 374.967L421.27 293.202L629.137 413.235Z" fill="url(#paint22_linear_9428_67191)"/>
<rect opacity="0.08" width="79.7672" height="240.398" transform="matrix(4.37114e-08 1 0.865988 -0.500065 629.136 414.053)" fill="url(#paint23_linear_9428_67191)"/>
<rect opacity="0.31" width="173.188" height="153.029" transform="matrix(0.864518 0.502602 -0.864518 0.502602 553.629 216.116)" fill="url(#paint24_linear_9428_67191)" fill-opacity="0.1"/>
<path opacity="0.27" fill-rule="evenodd" clip-rule="evenodd" d="M92.885 174.601L109.981 164.662L109.987 164.666L92.885 174.611L92.885 174.601ZM104.381 239.863L151.057 266.816L151.057 188.382L117.666 169.1V174.649L104.361 182.386V182.599L104.381 182.587V239.863Z" fill="url(#paint25_linear_9428_67191)"/>
<rect opacity="0.08" width="89.0835" height="97.7088" transform="matrix(4.37114e-08 1 0.865988 -0.500065 151.057 188.467)" fill="url(#paint26_linear_9428_67191)"/>
<path opacity="0.62" fill-rule="evenodd" clip-rule="evenodd" d="M235.68 139.577L176.214 105.006L99.467 149.624L117.657 160.199L109.809 164.762L109.816 164.766L117.666 160.201V169.33L151.084 188.758L235.68 139.577Z" fill="url(#paint27_linear_9428_67191)" fill-opacity="0.1"/>
<rect opacity="0.61" width="37.5001" height="36.9047" transform="matrix(0.864518 0.502602 -0.864518 0.502602 172.36 133.414)" fill="url(#paint28_linear_9428_67191)" fill-opacity="0.37"/>
<rect width="36.1349" height="36.6158" transform="matrix(4.37114e-08 1 0.865988 -0.500065 142.676 117.122)" fill="#F0B90B"/>
<rect width="36.1349" height="36.6158" transform="matrix(4.37114e-08 1 0.865988 -0.500065 142.676 117.122)" fill="url(#paint29_linear_9428_67191)"/>
<path d="M162.356 131.568L160.698 123.688C162.106 122.547 163.166 120.498 163.166 118.776C163.166 116.811 161.786 116.015 160.085 116.997C158.382 117.98 157.002 120.369 157.002 122.335C157.002 123.922 157.902 124.746 159.145 124.488L157.81 134.215L162.356 131.568Z" fill="#D0980B"/>
<path d="M162.356 131.568L160.698 123.688C162.106 122.547 163.166 120.498 163.166 118.776C163.166 116.811 161.786 116.015 160.085 116.997C158.382 117.98 157.002 120.369 157.002 122.335C157.002 123.922 157.902 124.746 159.145 124.488L157.81 134.215L162.356 131.568Z" fill="#BD8700"/>
<rect opacity="0.84" width="35.8557" height="12.0788" transform="matrix(-4.37114e-08 1 -0.865988 -0.500065 142.676 117.122)" fill="#F8D33A"/>
<rect width="36.6212" height="12.2641" transform="matrix(0.866025 -0.5 -0.866063 -0.499935 142.622 117.174)" fill="#FCEA9C"/>
<path d="M139.244 100.126V110.627C139.244 110.627 139.363 112.334 141.386 112.719C141.644 112.769 141.933 112.796 142.257 112.796C145.119 112.796 145.42 110.504 145.42 110.504V98.4381C145.42 94.0307 145.42 86.2331 152.651 83.5401C152.651 83.5401 152.655 83.5362 152.666 83.5324C158.299 81.3903 159.879 87.0383 159.879 89.8892V99.4583C159.879 99.4583 160.002 100.78 161.851 101.011C162.028 101.034 162.225 101.046 162.437 101.046C164.848 101.046 165.299 99.4583 165.299 99.4583C165.299 99.4583 165.6 100.815 165.6 89.5386C165.6 78.262 159.166 74.5635 152.193 76.4821C151.907 76.5746 151.63 76.6709 151.36 76.7711C139.625 81.086 139.244 92.7863 139.244 100.126Z" fill="#E6E8EA"/>
<g opacity="0.7">
<path d="M139.244 100.126V110.627C139.244 110.627 139.363 112.334 141.386 112.719C141.644 112.769 141.933 112.796 142.257 112.796C145.119 112.796 145.42 110.504 145.42 110.504V98.4381C145.42 94.0307 145.42 86.2331 152.651 83.5401C152.651 83.5401 152.655 83.5362 152.666 83.5324C158.299 81.3903 159.879 87.0383 159.879 89.8892V99.4583C159.879 99.4583 160.002 100.78 161.851 101.011C162.028 101.034 162.225 101.046 162.437 101.046C164.848 101.046 165.299 99.4583 165.299 99.4583C165.299 99.4583 165.6 100.815 165.6 89.5386C165.6 78.262 159.166 74.5635 152.193 76.4821C151.907 76.5746 151.63 76.6709 151.36 76.7711C139.625 81.086 139.244 92.7863 139.244 100.126Z" fill="url(#paint30_linear_9428_67191)"/>
</g>
<path opacity="0.27" fill-rule="evenodd" clip-rule="evenodd" d="M48.1717 390.906V391.025L-10 357.434L-10 278.999L10.9956 291.123V291.004L69.1673 324.596V403.03L48.1717 390.906Z" fill="url(#paint31_linear_9428_67191)"/>
<rect opacity="0.08" width="89.0835" height="97.7088" transform="matrix(4.37114e-08 1 0.865988 -0.500065 69.1672 324.682)" fill="url(#paint32_linear_9428_67191)"/>
<rect opacity="0.62" width="88.0925" height="97.5581" transform="matrix(0.864518 0.502602 -0.864518 0.502602 77.6323 231.516)" fill="url(#paint33_linear_9428_67191)" fill-opacity="0.1"/>
<rect opacity="0.09" width="14.4306" height="56.9108" transform="matrix(-4.34056e-08 1 -0.864461 -0.502701 67.748 293.028)" fill="#AEB4BC"/>
<rect opacity="0.34" width="14.4482" height="57.8007" transform="matrix(4.34056e-08 1 0.864461 -0.5027 67.7002 293.068)" fill="#76808F"/>
<rect opacity="0.22" width="56.8672" height="57.6812" transform="matrix(0.864518 0.502602 -0.864518 0.502602 68.4951 235.429)" fill="#F5F5F5"/>
<rect width="42.4123" height="42.4123" transform="matrix(0.864518 0.502602 -0.864518 0.502602 67.7153 232.648)" fill="#474D57"/>
<path fill-rule="evenodd" clip-rule="evenodd" d="M67.6636 275.251V232.679L67.7156 232.648L104.382 253.965L67.7157 275.282L67.6636 275.251Z" fill="#5E6673"/>
<rect opacity="0.69" width="10.8731" height="42.3082" transform="matrix(-4.37114e-08 1 -0.865988 -0.500065 67.6582 275.104)" fill="#76808F"/>
<rect opacity="0.72" width="10.8732" height="42.3082" transform="matrix(4.37114e-08 1 0.865988 -0.500065 67.7153 275.104)" fill="#2B2F36"/>
<mask id="mask0_9428_67191" style="mask-type:alpha" maskUnits="userSpaceOnUse" x="18" y="174" width="100" height="102">
<path fill-rule="evenodd" clip-rule="evenodd" d="M67.748 203.641V203.449L18.5508 174.84L18.5508 246.556L67.748 275.165V275.066L117.667 246.037V174.612L67.748 203.641Z" fill="#76808F"/>
</mask>
<g mask="url(#mask0_9428_67191)">
<path fill-rule="evenodd" clip-rule="evenodd" d="M84.8593 263.347C75.3938 257.883 60.0134 257.863 50.5479 263.328C49.0721 264.18 47.8272 265.115 46.813 266.107H43.3684V273.261H43.4657C43.4869 276.837 45.8617 280.411 50.5816 283.136C60.0471 288.6 75.4276 288.62 84.8931 283.155C89.6216 280.426 91.9796 276.844 91.9754 273.261H92.0162V266.107H88.5787C87.5653 265.122 86.3255 264.194 84.8593 263.347Z" fill="#F0B90B"/>
<rect width="39.6601" height="39.6511" rx="19.8256" transform="matrix(0.866044 0.499967 -0.866044 0.499967 67.6924 246.283)" fill="#F8D33A"/>
<rect width="31.4745" height="30.9487" rx="15.4744" transform="matrix(0.866044 0.499967 -0.866044 0.499967 67.2368 250.637)" fill="#F8D33A"/>
<g style="mix-blend-mode:soft-light">
<rect width="31.4745" height="30.9487" rx="15.4744" transform="matrix(0.866044 0.499967 -0.866044 0.499967 67.2368 250.637)" fill="url(#paint34_linear_9428_67191)"/>
</g>
<rect width="11.4007" height="11.3981" transform="matrix(0.866044 0.499967 -0.866044 0.499967 67.5483 261.082)" fill="#F0B90B"/>
<path fill-rule="evenodd" clip-rule="evenodd" d="M84.8593 235.238C75.3938 229.774 60.0134 229.754 50.5479 235.218C49.0721 236.07 47.8272 237.005 46.813 237.998H43.3684V245.152H43.4657C43.4869 248.728 45.8617 252.302 50.5816 255.027C60.0471 260.491 75.4276 260.51 84.8931 255.046C89.6216 252.316 91.9796 248.734 91.9754 245.152H92.0162V237.998H88.5787C87.5653 237.013 86.3255 236.084 84.8593 235.238Z" fill="#F0B90B"/>
<rect width="39.6601" height="39.6511" rx="19.8256" transform="matrix(0.866044 0.499967 -0.866044 0.499967 67.6924 218.174)" fill="#F8D33A"/>
<rect width="31.4745" height="30.9487" rx="15.4744" transform="matrix(0.866044 0.499967 -0.866044 0.499967 67.2368 222.527)" fill="#F8D33A"/>
<g style="mix-blend-mode:soft-light">
<rect width="31.4745" height="30.9487" rx="15.4744" transform="matrix(0.866044 0.499967 -0.866044 0.499967 67.2368 222.527)" fill="url(#paint35_linear_9428_67191)"/>
</g>
<rect width="11.4007" height="11.3981" transform="matrix(0.866044 0.499967 -0.866044 0.499967 67.5486 232.973)" fill="#F0B90B"/>
<path fill-rule="evenodd" clip-rule="evenodd" d="M84.8593 207.129C75.3938 201.664 60.0134 201.645 50.5479 207.109C49.0721 207.961 47.8272 208.896 46.813 209.888H43.3684V217.042H43.4657C43.4869 220.618 45.8617 224.192 50.5816 226.917C60.0471 232.382 75.4276 232.401 84.8931 226.937C89.6216 224.207 91.9796 220.625 91.9754 217.042H92.0162V209.888H88.5787C87.5653 208.903 86.3255 207.975 84.8593 207.129Z" fill="#F0B90B"/>
<rect width="39.6601" height="39.6511" rx="19.8256" transform="matrix(0.866044 0.499967 -0.866044 0.499967 67.6924 190.063)" fill="#F8D33A"/>
<rect width="31.4745" height="30.9487" rx="15.4744" transform="matrix(0.866044 0.499967 -0.866044 0.499967 67.2368 194.417)" fill="#F8D33A"/>
<g style="mix-blend-mode:soft-light">
<rect width="31.4745" height="30.9487" rx="15.4744" transform="matrix(0.866044 0.499967 -0.866044 0.499967 67.2368 194.417)" fill="url(#paint36_linear_9428_67191)"/>
</g>
<rect width="11.4007" height="11.3981" transform="matrix(0.866044 0.499967 -0.866044 0.499967 67.5486 204.862)" fill="#F0B90B"/>
</g>
<path opacity="0.24" fill-rule="evenodd" clip-rule="evenodd" d="M67.6721 275.039L67.6721 203.669L104.382 182.588L104.382 253.957L104.063 254.14L67.6722 233.242L67.6721 275.039Z" fill="url(#paint37_linear_9428_67191)"/>
<path opacity="0.63" fill-rule="evenodd" clip-rule="evenodd" d="M67.7295 275.032L67.7295 203.141L31.02 182.06L31.02 253.95L31.1182 254.007L67.7294 232.982V275.032L67.7295 275.032Z" fill="url(#paint38_linear_9428_67191)"/>
<rect opacity="0.25" width="14.4306" height="56.9108" transform="matrix(-4.34056e-08 1 -0.864461 -0.502701 67.748 189.217)" fill="#AEB4BC"/>
<rect opacity="0.14" width="14.4482" height="57.8007" transform="matrix(4.34056e-08 1 0.864461 -0.5027 67.7002 189.257)" fill="#5E6673"/>
<rect opacity="0.12" width="56.8672" height="57.6812" transform="matrix(0.864518 0.502602 -0.864518 0.502602 68.4951 131.617)" fill="#CACED3"/>
<path d="M39.7988 252.812L41.52 251.091L43.2412 252.812L41.52 254.533L39.7988 252.812Z" fill="#F8D33A"/>
<path d="M84.3311 237.731L85.9851 236.077L87.6392 237.731L85.9851 239.385L84.3311 237.731Z" fill="white"/>
<path opacity="0.5" d="M97.2817 212.168L98.3332 211.116L99.3846 212.168L98.3332 213.219L97.2817 212.168Z" fill="#F8D33A"/>
<path opacity="0.5" d="M90.311 253.924L91.3625 252.872L92.4139 253.924L91.3625 254.975L90.311 253.924Z" fill="#F8D33A"/>
<path d="M69.5718 219.697L70.6232 218.646L71.6747 219.697L70.6232 220.748L69.5718 219.697Z" fill="white"/>
<path d="M91.3289 220.555L92.7284 219.155L94.128 220.555L92.7284 221.954L91.3289 220.555Z" fill="#F8D33A"/>
<path opacity="0.47" d="M91.4561 220.683L91.4561 252.11L94.128 250.558V220.683L91.4561 220.683Z" fill="url(#paint39_linear_9428_67191)"/>
<path d="M50.8682 230.228L52.5257 228.57L54.1833 230.228L52.5257 231.885L50.8682 230.228Z" fill="white"/>
<path opacity="0.3" d="M50.8682 230.225L50.8682 268.777L54.1763 266.874V230.225L50.8682 230.225Z" fill="url(#paint40_linear_9428_67191)"/>
<path opacity="0.29" d="M84.5854 237.731L84.5855 275.266L87.2574 273.413V237.731L84.5854 237.731Z" fill="url(#paint41_linear_9428_67191)"/>
<path d="M40.4351 218.901L41.8346 217.501L43.2342 218.901L41.8346 220.3L40.4351 218.901Z" fill="#F8D33A"/>
<path d="M55.7031 241.866L56.9119 240.657L58.1206 241.866L56.9119 243.075L55.7031 241.866Z" fill="#FCEA9C"/>
<rect opacity="0.33" width="21.7162" height="22.027" transform="matrix(0.862373 0.506274 -0.862373 0.506274 454.884 187.073)" fill="#E6E8EA"/>
<rect opacity="0.23" width="17.7666" height="21.7328" transform="matrix(-4.29839e-08 1 -0.862315 -0.506372 454.599 209.215)" fill="#AEB4BC"/>
<rect opacity="0.21" width="18.0121" height="21.8436" transform="matrix(-4.29839e-08 1 -0.862315 -0.506372 473.614 198.08)" fill="#CACED3"/>
<rect opacity="0.4" width="17.9142" height="22.0516" transform="matrix(4.29839e-08 1 0.862315 -0.506373 454.599 209.229)" fill="#929AA5"/>
<g style="mix-blend-mode:screen" opacity="0.62">
<rect width="21.8799" height="21.8281" transform="matrix(0.862373 0.506274 -0.862373 0.506274 454.658 204.893)" fill="url(#paint42_linear_9428_67191)"/>
</g>
<rect opacity="0.33" width="21.7162" height="22.027" transform="matrix(0.862373 0.506274 -0.862373 0.506274 346.971 243.679)" fill="#E6E8EA"/>
<rect opacity="0.23" width="17.7666" height="21.7328" transform="matrix(-4.29839e-08 1 -0.862315 -0.506372 346.687 265.82)" fill="#AEB4BC"/>
<rect opacity="0.21" width="18.0121" height="21.8436" transform="matrix(-4.29839e-08 1 -0.862315 -0.506372 365.702 254.686)" fill="#CACED3"/>
<rect opacity="0.4" width="17.9142" height="22.0516" transform="matrix(4.29839e-08 1 0.862315 -0.506373 346.687 265.834)" fill="#929AA5"/>
<g style="mix-blend-mode:screen" opacity="0.62">
<rect width="21.8799" height="21.8281" transform="matrix(0.862373 0.506274 -0.862373 0.506274 346.746 261.498)" fill="url(#paint43_linear_9428_67191)"/>
</g>
<rect width="15.5189" height="15.741" transform="matrix(0.862783 0.505575 -0.862783 0.505575 227.071 15.6611)" fill="#FCEA9C"/>
<rect opacity="0.76" width="12.6789" height="15.5308" transform="matrix(-4.30638e-08 1 -0.862725 -0.505673 226.867 31.4619)" fill="#F8D33A"/>
<rect width="12.7842" height="15.7586" transform="matrix(4.30638e-08 1 0.862725 -0.505673 226.867 31.4717)" fill="#F0B90B"/>
<rect opacity="0.19" width="15.6359" height="15.5988" transform="matrix(0.862783 0.505575 -0.862783 0.505575 226.91 28.377)" fill="#FCEA9C"/>
<rect width="15.5189" height="15.741" transform="matrix(0.862783 0.505575 -0.862783 0.505575 44.7373 47.46)" fill="#FCEA9C"/>
<rect opacity="0.76" width="12.6789" height="15.5308" transform="matrix(-4.30638e-08 1 -0.862725 -0.505673 44.5339 63.2607)" fill="#F8D33A"/>
<rect width="12.7842" height="15.7586" transform="matrix(4.30638e-08 1 0.862725 -0.505673 44.5339 63.2705)" fill="#F0B90B"/>
<rect opacity="0.19" width="15.6359" height="15.5988" transform="matrix(0.862783 0.505575 -0.862783 0.505575 44.5762 60.1758)" fill="#FCEA9C"/>
<rect opacity="0.33" width="15.5189" height="15.741" transform="matrix(0.862783 0.505575 -0.862783 0.505575 44.7373 79.8223)" fill="#E6E8EA"/>
<rect opacity="0.23" width="12.6789" height="15.5308" transform="matrix(-4.30638e-08 1 -0.862725 -0.505673 44.5339 95.623)" fill="#AEB4BC"/>
<rect opacity="0.21" width="12.8541" height="15.6099" transform="matrix(-4.30638e-08 1 -0.862725 -0.505673 58.1292 87.6768)" fill="#CACED3"/>
<rect opacity="0.4" width="12.7842" height="15.7586" transform="matrix(4.30638e-08 1 0.862725 -0.505673 44.5339 95.6328)" fill="#929AA5"/>
<g style="mix-blend-mode:screen" opacity="0.62">
<rect width="15.6359" height="15.5988" transform="matrix(0.862783 0.505575 -0.862783 0.505575 44.5762 92.5381)" fill="url(#paint44_linear_9428_67191)"/>
</g>
<rect opacity="0.09" width="14.4306" height="56.9108" transform="matrix(-4.34056e-08 1 -0.864461 -0.502701 554.645 309.012)" fill="#AEB4BC"/>
<rect opacity="0.34" width="14.4482" height="57.8007" transform="matrix(4.34056e-08 1 0.864461 -0.5027 554.597 309.052)" fill="#76808F"/>
<rect opacity="0.22" width="56.8672" height="57.6812" transform="matrix(0.864518 0.502602 -0.864518 0.502602 555.392 251.412)" fill="#F5F5F5"/>
<rect width="42.4123" height="42.4123" transform="matrix(0.864518 0.502602 -0.864518 0.502602 554.612 248.632)" fill="#474D57"/>
<path fill-rule="evenodd" clip-rule="evenodd" d="M554.56 291.235V248.662L554.612 248.632L591.278 269.948L554.612 291.265L554.56 291.235Z" fill="#5E6673"/>
<rect opacity="0.69" width="10.8731" height="42.3082" transform="matrix(-4.37114e-08 1 -0.865988 -0.500065 554.555 291.087)" fill="#76808F"/>
<rect opacity="0.72" width="10.8732" height="42.3082" transform="matrix(4.37114e-08 1 0.865988 -0.500065 554.612 291.087)" fill="#2B2F36"/>
<mask id="mask1_9428_67191" style="mask-type:alpha" maskUnits="userSpaceOnUse" x="505" y="190" width="100" height="102">
<path fill-rule="evenodd" clip-rule="evenodd" d="M554.644 219.624V219.432L505.447 190.823L505.447 262.539L554.644 291.148V291.05L604.563 262.021V190.596L554.644 219.624Z" fill="#76808F"/>
</mask>
<g mask="url(#mask1_9428_67191)">
<path fill-rule="evenodd" clip-rule="evenodd" d="M571.756 288.493C562.29 283.028 546.91 283.009 537.444 288.473C535.969 289.325 534.724 290.26 533.709 291.252H530.265V298.407H530.362C530.383 301.983 532.758 305.557 537.478 308.281C546.944 313.746 562.324 313.765 571.79 308.301C576.518 305.571 578.876 301.989 578.872 298.407H578.913V291.252H575.475C574.462 290.268 573.222 289.339 571.756 288.493Z" fill="#F0B90B"/>
<rect width="39.6601" height="39.6511" rx="19.8256" transform="matrix(0.866044 0.499967 -0.866044 0.499967 554.589 271.429)" fill="#F8D33A"/>
<rect width="31.4745" height="30.9487" rx="15.4744" transform="matrix(0.866044 0.499967 -0.866044 0.499967 554.133 275.782)" fill="#F8D33A"/>
<g style="mix-blend-mode:soft-light">
<rect width="31.4745" height="30.9487" rx="15.4744" transform="matrix(0.866044 0.499967 -0.866044 0.499967 554.133 275.782)" fill="url(#paint45_linear_9428_67191)"/>
</g>
<rect width="11.4007" height="11.3981" transform="matrix(0.866044 0.499967 -0.866044 0.499967 554.445 286.228)" fill="#F0B90B"/>
<path fill-rule="evenodd" clip-rule="evenodd" d="M571.756 252.494C562.29 247.029 546.91 247.01 537.444 252.474C535.969 253.326 534.724 254.261 533.709 255.253H530.265V262.408H530.362C530.383 265.984 532.758 269.558 537.478 272.282C546.944 277.747 562.324 277.766 571.79 272.302C576.518 269.572 578.876 265.99 578.872 262.408H578.913V255.253H575.475C574.462 254.269 573.222 253.34 571.756 252.494Z" fill="#F0B90B"/>
<rect width="39.6601" height="39.6511" rx="19.8256" transform="matrix(0.866044 0.499967 -0.866044 0.499967 554.589 235.43)" fill="#F8D33A"/>
<rect width="31.4745" height="30.9487" rx="15.4744" transform="matrix(0.866044 0.499967 -0.866044 0.499967 554.133 239.783)" fill="#F8D33A"/>
<g style="mix-blend-mode:soft-light">
<rect width="31.4745" height="30.9487" rx="15.4744" transform="matrix(0.866044 0.499967 -0.866044 0.499967 554.133 239.783)" fill="url(#paint46_linear_9428_67191)"/>
</g>
<rect width="11.4007" height="11.3981" transform="matrix(0.866044 0.499967 -0.866044 0.499967 554.445 250.229)" fill="#F0B90B"/>
<path fill-rule="evenodd" clip-rule="evenodd" d="M571.756 216.496C562.29 211.031 546.91 211.012 537.444 216.476C535.969 217.328 534.724 218.263 533.709 219.255H530.265V226.409H530.362C530.383 229.986 532.758 233.56 537.478 236.284C546.944 241.749 562.324 241.768 571.79 236.304C576.518 233.574 578.876 229.992 578.872 226.409H578.913V219.255H575.475C574.462 218.271 573.222 217.342 571.756 216.496Z" fill="#F0B90B"/>
<rect width="39.6601" height="39.6511" rx="19.8256" transform="matrix(0.866044 0.499967 -0.866044 0.499967 554.589 199.431)" fill="#F8D33A"/>
<rect width="31.4745" height="30.9487" rx="15.4744" transform="matrix(0.866044 0.499967 -0.866044 0.499967 554.133 203.784)" fill="#F8D33A"/>
<g style="mix-blend-mode:soft-light">
<rect width="31.4745" height="30.9487" rx="15.4744" transform="matrix(0.866044 0.499967 -0.866044 0.499967 554.133 203.784)" fill="url(#paint47_linear_9428_67191)"/>
</g>
<rect width="11.4007" height="11.3981" transform="matrix(0.866044 0.499967 -0.866044 0.499967 554.445 214.229)" fill="#F0B90B"/>
</g>
<path opacity="0.24" fill-rule="evenodd" clip-rule="evenodd" d="M554.569 291.022L554.569 219.653L591.278 198.571L591.278 269.941L590.959 270.124L554.569 249.225L554.569 291.022Z" fill="url(#paint48_linear_9428_67191)"/>
<path opacity="0.63" fill-rule="evenodd" clip-rule="evenodd" d="M554.626 291.015L554.626 219.125L517.917 198.043L517.917 269.934L518.015 269.99L554.626 248.965V291.015L554.626 291.015Z" fill="url(#paint49_linear_9428_67191)"/>
<rect opacity="0.25" width="14.4306" height="56.9108" transform="matrix(-4.34056e-08 1 -0.864461 -0.502701 554.645 205.2)" fill="#AEB4BC"/>
<rect opacity="0.14" width="14.4482" height="57.8007" transform="matrix(4.34056e-08 1 0.864461 -0.5027 554.597 205.24)" fill="#5E6673"/>
<rect opacity="0.12" width="56.8672" height="57.6812" transform="matrix(0.864518 0.502602 -0.864518 0.502602 555.392 147.601)" fill="#CACED3"/>
<path d="M526.695 268.795L528.416 267.074L530.138 268.795L528.416 270.517L526.695 268.795Z" fill="#F8D33A"/>
<path d="M571.228 253.715L572.882 252.061L574.536 253.715L572.882 255.369L571.228 253.715Z" fill="white"/>
<path opacity="0.5" d="M584.178 228.151L585.23 227.1L586.281 228.151L585.23 229.202L584.178 228.151Z" fill="#F8D33A"/>
<path opacity="0.5" d="M577.208 269.907L578.259 268.855L579.31 269.907L578.259 270.958L577.208 269.907Z" fill="#F8D33A"/>
<path d="M556.468 235.68L557.52 234.629L558.571 235.68L557.52 236.732L556.468 235.68Z" fill="white"/>
<path d="M578.225 236.538L579.625 235.139L581.025 236.538L579.625 237.938L578.225 236.538Z" fill="#F8D33A"/>
<path opacity="0.47" d="M578.353 236.666L578.353 268.093L581.025 266.542V236.666L578.353 236.666Z" fill="url(#paint50_linear_9428_67191)"/>
<path d="M537.765 246.211L539.422 244.554L541.08 246.211L539.422 247.869L537.765 246.211Z" fill="white"/>
<path d="M544.999 245.502L548.364 242.138L551.728 245.502L548.364 248.867L544.999 245.502Z" fill="#F8D33A"/>
<path opacity="0.3" d="M537.765 246.208L537.765 284.76L541.073 282.857V246.208L537.765 246.208Z" fill="url(#paint51_linear_9428_67191)"/>
<path opacity="0.29" d="M571.482 253.715L571.482 291.249L574.154 289.396V253.715L571.482 253.715Z" fill="url(#paint52_linear_9428_67191)"/>
<path d="M527.332 234.884L528.731 233.484L530.131 234.884L528.731 236.284L527.332 234.884Z" fill="#F8D33A"/>
<path d="M542.6 257.849L543.808 256.641L545.017 257.849L543.808 259.058L542.6 257.849Z" fill="#FCEA9C"/>
<rect opacity="0.82" width="15.3301" height="60.4586" transform="matrix(-4.34056e-08 1 -0.864461 -0.502701 526.252 115.388)" fill="#AEB4BC"/>
<rect opacity="0.82" width="15.3489" height="61.4039" transform="matrix(4.34056e-08 1 0.864461 -0.5027 526.202 115.43)" fill="#76808F"/>
<path opacity="0.22" fill-rule="evenodd" clip-rule="evenodd" d="M493.508 73.6941V82.9303L526.597 102.038L526.597 83.7404L526.649 83.7704L526.649 102.038L559.738 82.9304L559.738 73.2021L579.274 84.5596L526.299 115.358L474.071 84.9942L493.508 73.6941Z" fill="#F5F5F5"/>
<rect opacity="0.29" width="38.3035" height="38.3035" transform="matrix(0.864518 0.502602 -0.864518 0.502602 526.649 45.2676)" fill="#E6E8EA"/>
<rect opacity="0.44" width="18.428" height="38.2095" transform="matrix(-4.37114e-08 1 -0.865988 -0.500065 526.597 83.6094)" fill="#76808F"/>
<rect opacity="0.19" width="18.4281" height="38.2095" transform="matrix(4.37114e-08 1 0.865988 -0.500065 526.649 83.6094)" fill="#474D57"/>
<rect opacity="0.82" width="6.26034" height="26.0454" transform="matrix(-4.34056e-08 1 -0.864461 -0.502701 526.713 71.5322)" fill="#F0B90B"/>
<path d="M504.198 58.4822L501.306 33.4883L515.326 64.9373L504.198 58.4822Z" fill="#F0B90B"/>
<path d="M504.198 58.4822L501.306 33.4883L515.326 64.9373L504.198 58.4822Z" fill="#F8D33A"/>
<path d="M515.326 64.9373L501.306 33.4883H502.081L515.352 51.5108V64.9373H515.326Z" fill="#D0980B"/>
<path d="M549.176 58.4822L552.068 33.4883L538.048 64.9373L549.176 58.4822Z" fill="#F0B90B"/>
<path d="M538.048 64.9373L552.068 33.4883H551.294L538.022 51.5108V64.9373H538.048Z" fill="#F8D33A"/>
<rect x="515.352" y="51.5107" width="22.6701" height="13.4265" fill="#F8D33A"/>
<rect x="515.352" y="51.5107" width="22.6701" height="13.4265" fill="url(#paint53_linear_9428_67191)"/>
<path d="M525.319 20.2168H526.713V51.5109H515.3L525.319 20.2168Z" fill="#F8D33A"/>
<path d="M525.319 48.4121H526.713V71.547L515.3 64.937L525.319 48.4121Z" fill="#F8D33A"/>
<rect width="3.8219" height="3.87661" transform="matrix(0.862373 0.506274 -0.862373 0.506274 501.004 28.8506)" fill="#FCEA9C"/>
<rect opacity="0.76" width="3.1268" height="3.82484" transform="matrix(-4.29839e-08 1 -0.862315 -0.506372 500.954 32.748)" fill="#F8D33A"/>
<rect width="3.15279" height="3.88094" transform="matrix(4.29839e-08 1 0.862315 -0.506372 500.954 32.75)" fill="#F0B90B"/>
<rect opacity="0.19" width="3.85072" height="3.8416" transform="matrix(0.862373 0.506274 -0.862373 0.506274 500.965 31.9873)" fill="#FCEA9C"/>
<rect opacity="0.82" width="6.26034" height="26.0454" transform="matrix(4.34056e-08 1 0.864461 -0.502701 526.661 71.5322)" fill="#F0B90B"/>
<path d="M528.055 20.2168H526.661V51.5109H538.074L528.055 20.2168Z" fill="#D0980B"/>
<path d="M528.055 20.2168H526.661V51.5109H538.074L528.055 20.2168Z" fill="url(#paint54_linear_9428_67191)"/>
<path d="M528.055 48.4121H526.661V71.547L538.074 64.937L528.055 48.4121Z" fill="#F8D33A"/>
<path d="M528.055 48.4121H526.661V71.547L538.074 64.937L528.055 48.4121Z" fill="url(#paint55_linear_9428_67191)"/>
<rect width="3.8219" height="3.87661" transform="matrix(-0.862373 0.506274 0.862373 0.506274 552.318 28.8506)" fill="#FCEA9C"/>
<rect opacity="0.76" width="3.1268" height="3.82484" transform="matrix(4.29839e-08 1 0.862315 -0.506372 552.368 32.748)" fill="#F8D33A"/>
<rect width="3.15279" height="3.88094" transform="matrix(-4.29839e-08 1 -0.862315 -0.506372 552.368 32.75)" fill="#F0B90B"/>
<rect opacity="0.19" width="3.85072" height="3.8416" transform="matrix(-0.862373 0.506274 0.862373 0.506274 552.358 31.9873)" fill="#FCEA9C"/>
<rect width="3.8219" height="3.87661" transform="matrix(-0.862373 0.506274 0.862373 0.506274 526.653 14.7012)" fill="#FCEA9C"/>
<rect opacity="0.76" width="3.1268" height="3.82484" transform="matrix(4.29839e-08 1 0.862315 -0.506372 526.703 18.5986)" fill="#F8D33A"/>
<rect width="3.15279" height="3.88094" transform="matrix(-4.29839e-08 1 -0.862315 -0.506372 526.703 18.6006)" fill="#F0B90B"/>
<rect opacity="0.19" width="3.85072" height="3.8416" transform="matrix(-0.862373 0.506274 0.862373 0.506274 526.693 17.8379)" fill="#FCEA9C"/>
<rect width="3.8219" height="3.87661" transform="matrix(-0.862373 0.506274 0.862373 0.506274 526.653 43.5693)" fill="#FCEA9C"/>
<rect opacity="0.76" width="3.1268" height="3.82484" transform="matrix(4.29839e-08 1 0.862315 -0.506372 526.703 47.4658)" fill="#F8D33A"/>
<rect width="3.15279" height="3.88094" transform="matrix(-4.29839e-08 1 -0.862315 -0.506372 526.703 47.4688)" fill="#F0B90B"/>
<rect opacity="0.19" width="3.85072" height="3.8416" transform="matrix(-0.862373 0.506274 0.862373 0.506274 526.693 46.7051)" fill="#FCEA9C"/>
<path opacity="0.31" fill-rule="evenodd" clip-rule="evenodd" d="M526.61 45.4222L526.61 -20.9559L559.763 -39.9951L559.763 64.4614L526.61 45.4222Z" fill="url(#paint56_linear_9428_67191)"/>
<path opacity="0.49" fill-rule="evenodd" clip-rule="evenodd" d="M526.661 45.4939L526.661 -20.9608L493.508 -40L493.508 64.5066L493.531 64.5199L526.661 45.4939Z" fill="url(#paint57_linear_9428_67191)"/>
</g>
<defs>
<linearGradient id="paint0_linear_9428_67191" x1="479.399" y1="217.698" x2="397.425" y2="439.711" gradientUnits="userSpaceOnUse">
<stop stop-color="#83898F"/>
<stop offset="1" stop-color="#FAFAFA" stop-opacity="0"/>
</linearGradient>
<linearGradient id="paint1_linear_9428_67191" x1="-11.5034" y1="59.4833" x2="83.6216" y2="39.7077" gradientUnits="userSpaceOnUse">
<stop stop-color="#DFE2E5"/>
<stop offset="1" stop-color="#FAFAFA" stop-opacity="0"/>
</linearGradient>
<linearGradient id="paint2_linear_9428_67191" x1="64.6704" y1="0" x2="64.6704" y2="119.869" gradientUnits="userSpaceOnUse">
<stop stop-color="#76808F"/>
<stop offset="1" stop-color="#9DA3AC" stop-opacity="0.96"/>
</linearGradient>
<linearGradient id="paint3_linear_9428_67191" x1="211.425" y1="216.251" x2="148.37" y2="359.768" gradientUnits="userSpaceOnUse">
<stop stop-color="#83898F"/>
<stop offset="1" stop-color="#FAFAFA" stop-opacity="0"/>
</linearGradient>
<linearGradient id="paint4_linear_9428_67191" x1="-11.3967" y1="114.066" x2="85.7977" y2="103.627" gradientUnits="userSpaceOnUse">
<stop stop-color="#DFE2E5"/>
<stop offset="1" stop-color="#FAFAFA" stop-opacity="0"/>
</linearGradient>
<linearGradient id="paint5_linear_9428_67191" x1="114.23" y1="0" x2="114.23" y2="228.46" gradientUnits="userSpaceOnUse">
<stop stop-color="#76808F"/>
<stop offset="1" stop-color="#9DA3AC" stop-opacity="0.96"/>
</linearGradient>
<linearGradient id="paint6_linear_9428_67191" x1="98.3084" y1="71.657" x2="25.7207" y2="74.2311" gradientUnits="userSpaceOnUse">
<stop stop-color="#EDAE10"/>
<stop offset="1" stop-color="white" stop-opacity="0"/>
</linearGradient>
<linearGradient id="paint7_linear_9428_67191" x1="91.7082" y1="71.6572" x2="23.9829" y2="73.8976" gradientUnits="userSpaceOnUse">
<stop stop-color="#ABB0B7"/>
<stop offset="1" stop-color="white" stop-opacity="0"/>
</linearGradient>
<linearGradient id="paint8_linear_9428_67191" x1="316.136" y1="145.329" x2="316.136" y2="220.046" gradientUnits="userSpaceOnUse">
<stop stop-color="#76808F"/>
<stop offset="1" stop-color="#9DA3AC" stop-opacity="0.96"/>
</linearGradient>
<linearGradient id="paint9_linear_9428_67191" x1="16.0879" y1="0" x2="16.0879" y2="97.0048" gradientUnits="userSpaceOnUse">
<stop stop-color="#848FA2" stop-opacity="0.54"/>
<stop offset="1" stop-color="#747981" stop-opacity="0.66"/>
</linearGradient>
<linearGradient id="paint10_linear_9428_67191" x1="16.0879" y1="0" x2="16.0879" y2="97.0048" gradientUnits="userSpaceOnUse">
<stop stop-color="#5E6673"/>
<stop offset="1" stop-color="#5E6673" stop-opacity="0.8"/>
</linearGradient>
<linearGradient id="paint11_linear_9428_67191" x1="306.694" y1="182.195" x2="371.994" y2="203.977" gradientUnits="userSpaceOnUse">
<stop stop-color="#F0B90B"/>
<stop offset="1" stop-color="#F8D33A"/>
</linearGradient>
<linearGradient id="paint12_linear_9428_67191" x1="-13.8548" y1="-3.80149" x2="19.1444" y2="-11.5647" gradientUnits="userSpaceOnUse">
<stop stop-color="#CFD7E2"/>
<stop offset="1" stop-color="#76808F" stop-opacity="0"/>
</linearGradient>
<linearGradient id="paint13_linear_9428_67191" x1="239.514" y1="270.632" x2="239.488" y2="284.058" gradientUnits="userSpaceOnUse">
<stop stop-color="#FCEA9C"/>
<stop offset="1" stop-color="#FCEA9C" stop-opacity="0"/>
</linearGradient>
<linearGradient id="paint14_linear_9428_67191" x1="241.838" y1="243.263" x2="245.168" y2="270.632" gradientUnits="userSpaceOnUse">
<stop stop-color="#F0B90B"/>
<stop offset="1" stop-color="#F0B90B" stop-opacity="0"/>
</linearGradient>
<linearGradient id="paint15_linear_9428_67191" x1="243.903" y1="270.322" x2="245.194" y2="295.109" gradientUnits="userSpaceOnUse">
<stop stop-color="#F0B90B"/>
<stop offset="1" stop-color="#F0B90B" stop-opacity="0"/>
</linearGradient>
<linearGradient id="paint16_linear_9428_67191" x1="230.667" y1="226.762" x2="250.884" y2="281.157" gradientUnits="userSpaceOnUse">
<stop stop-color="white" stop-opacity="0"/>
<stop offset="1" stop-color="#F8D33A"/>
</linearGradient>
<linearGradient id="paint17_linear_9428_67191" x1="248.206" y1="223.147" x2="230.626" y2="274.326" gradientUnits="userSpaceOnUse">
<stop stop-color="white" stop-opacity="0"/>
<stop offset="1" stop-color="#F8D33A"/>
</linearGradient>
<linearGradient id="paint18_linear_9428_67191" x1="24.6429" y1="5.62502" x2="147.108" y2="18.478" gradientUnits="userSpaceOnUse">
<stop stop-color="#929AA5"/>
<stop offset="1" stop-color="#929AA5" stop-opacity="0"/>
</linearGradient>
<linearGradient id="paint19_linear_9428_67191" x1="340.315" y1="52.6984" x2="316.791" y2="93.447" gradientUnits="userSpaceOnUse">
<stop stop-color="#F0B90B"/>
<stop offset="1" stop-color="#F8D33A"/>
</linearGradient>
<linearGradient id="paint20_linear_9428_67191" x1="327.045" y1="83.8448" x2="316.963" y2="101.308" gradientUnits="userSpaceOnUse">
<stop stop-color="#F0B90B"/>
<stop offset="1" stop-color="#F8D33A"/>
</linearGradient>
<linearGradient id="paint21_linear_9428_67191" x1="326.697" y1="37.0762" x2="316.615" y2="54.5399" gradientUnits="userSpaceOnUse">
<stop stop-color="#F0B90B"/>
<stop offset="1" stop-color="#F8D33A"/>
</linearGradient>
<linearGradient id="paint22_linear_9428_67191" x1="539.839" y1="309.421" x2="489.593" y2="402.991" gradientUnits="userSpaceOnUse">
<stop stop-color="#83898F"/>
<stop offset="1" stop-color="#FAFAFA" stop-opacity="0"/>
</linearGradient>
<linearGradient id="paint23_linear_9428_67191" x1="-10.2982" y1="120.226" x2="77.7944" y2="112.115" gradientUnits="userSpaceOnUse">
<stop stop-color="#DFE2E5"/>
<stop offset="1" stop-color="#FAFAFA" stop-opacity="0"/>
</linearGradient>
<linearGradient id="paint24_linear_9428_67191" x1="86.5942" y1="0" x2="86.5942" y2="153.029" gradientUnits="userSpaceOnUse">
<stop stop-color="#76808F"/>
<stop offset="1" stop-color="#9DA3AC" stop-opacity="0.96"/>
</linearGradient>
<linearGradient id="paint25_linear_9428_67191" x1="61.6616" y1="130.334" x2="48.6557" y2="236.869" gradientUnits="userSpaceOnUse">
<stop stop-color="#83898F"/>
<stop offset="1" stop-color="#FAFAFA" stop-opacity="0"/>
</linearGradient>
<linearGradient id="paint26_linear_9428_67191" x1="-11.501" y1="48.8656" x2="81.7454" y2="25.2733" gradientUnits="userSpaceOnUse">
<stop stop-color="#DFE2E5"/>
<stop offset="1" stop-color="#FAFAFA" stop-opacity="0"/>
</linearGradient>
<linearGradient id="paint27_linear_9428_67191" x1="167.573" y1="105.006" x2="167.573" y2="188.758" gradientUnits="userSpaceOnUse">
<stop stop-color="#76808F"/>
<stop offset="1" stop-color="#9DA3AC" stop-opacity="0.96"/>
</linearGradient>
<linearGradient id="paint28_linear_9428_67191" x1="4.12162" y1="12.7887" x2="30.9975" y2="12.6557" gradientUnits="userSpaceOnUse">
<stop stop-color="#F2BE14"/>
<stop offset="1" stop-color="#9DA3AC" stop-opacity="0"/>
</linearGradient>
<linearGradient id="paint29_linear_9428_67191" x1="57.6818" y1="18.3655" x2="27.7861" y2="57.7237" gradientUnits="userSpaceOnUse">
<stop stop-color="#F7CF33"/>
<stop offset="1" stop-color="#F0B90B" stop-opacity="0"/>
</linearGradient>
<linearGradient id="paint30_linear_9428_67191" x1="143.853" y1="108.687" x2="164.327" y2="77.796" gradientUnits="userSpaceOnUse">
<stop stop-color="white"/>
<stop offset="1" stop-color="#E6E8EA" stop-opacity="0"/>
</linearGradient>
<linearGradient id="paint31_linear_9428_67191" x1="-52.4928" y1="251.921" x2="-64.2659" y2="370.462" gradientUnits="userSpaceOnUse">
<stop stop-color="#83898F"/>
<stop offset="1" stop-color="#FAFAFA" stop-opacity="0"/>
</linearGradient>
<linearGradient id="paint32_linear_9428_67191" x1="-11.501" y1="48.8656" x2="81.7454" y2="25.2733" gradientUnits="userSpaceOnUse">
<stop stop-color="#DFE2E5"/>
<stop offset="1" stop-color="#FAFAFA" stop-opacity="0"/>
</linearGradient>
<linearGradient id="paint33_linear_9428_67191" x1="44.0462" y1="0" x2="44.0462" y2="97.5581" gradientUnits="userSpaceOnUse">
<stop stop-color="#76808F"/>
<stop offset="1" stop-color="#9DA3AC" stop-opacity="0.96"/>
</linearGradient>
<linearGradient id="paint34_linear_9428_67191" x1="15.7372" y1="0" x2="15.7372" y2="30.9487" gradientUnits="userSpaceOnUse">
<stop/>
<stop offset="0.669271" stop-color="#454545" stop-opacity="0.45"/>
<stop offset="1" stop-color="#D1D1D1" stop-opacity="0.29"/>
</linearGradient>
<linearGradient id="paint35_linear_9428_67191" x1="15.7372" y1="0" x2="15.7372" y2="30.9487" gradientUnits="userSpaceOnUse">
<stop/>
<stop offset="0.669271" stop-color="#454545" stop-opacity="0.45"/>
<stop offset="1" stop-color="#D1D1D1" stop-opacity="0.29"/>
</linearGradient>
<linearGradient id="paint36_linear_9428_67191" x1="15.7372" y1="0" x2="15.7372" y2="30.9487" gradientUnits="userSpaceOnUse">
<stop/>
<stop offset="0.669271" stop-color="#454545" stop-opacity="0.45"/>
<stop offset="1" stop-color="#D1D1D1" stop-opacity="0.29"/>
</linearGradient>
<linearGradient id="paint37_linear_9428_67191" x1="58.8842" y1="167.753" x2="77.5167" y2="250.744" gradientUnits="userSpaceOnUse">
<stop stop-color="white" stop-opacity="0"/>
<stop offset="1" stop-color="#F8D33A"/>
</linearGradient>
<linearGradient id="paint38_linear_9428_67191" x1="82.8044" y1="188.11" x2="68.5498" y2="257.196" gradientUnits="userSpaceOnUse">
<stop stop-color="white" stop-opacity="0"/>
<stop offset="1" stop-color="#F8D33A"/>
</linearGradient>
<linearGradient id="paint39_linear_9428_67191" x1="91.4561" y1="220.942" x2="85.0146" y2="226.77" gradientUnits="userSpaceOnUse">
<stop stop-color="#F9DA58"/>
<stop offset="1" stop-color="white" stop-opacity="0"/>
</linearGradient>
<linearGradient id="paint40_linear_9428_67191" x1="52.5222" y1="253.751" x2="63.2945" y2="241.132" gradientUnits="userSpaceOnUse">
<stop stop-color="white" stop-opacity="0"/>
<stop offset="1" stop-color="white"/>
</linearGradient>
<linearGradient id="paint41_linear_9428_67191" x1="84.5854" y1="238.041" x2="77.1424" y2="243.68" gradientUnits="userSpaceOnUse">
<stop stop-color="white"/>
<stop offset="1" stop-color="white" stop-opacity="0"/>
</linearGradient>
<linearGradient id="paint42_linear_9428_67191" x1="-13.8548" y1="-3.80149" x2="19.1444" y2="-11.5647" gradientUnits="userSpaceOnUse">
<stop stop-color="#CFD7E2"/>
<stop offset="1" stop-color="#76808F" stop-opacity="0"/>
</linearGradient>
<linearGradient id="paint43_linear_9428_67191" x1="-13.8548" y1="-3.80149" x2="19.1444" y2="-11.5647" gradientUnits="userSpaceOnUse">
<stop stop-color="#CFD7E2"/>
<stop offset="1" stop-color="#76808F" stop-opacity="0"/>
</linearGradient>
<linearGradient id="paint44_linear_9428_67191" x1="-9.90096" y1="-2.71663" x2="13.6811" y2="-8.26437" gradientUnits="userSpaceOnUse">
<stop stop-color="#CFD7E2"/>
<stop offset="1" stop-color="#76808F" stop-opacity="0"/>
</linearGradient>
<linearGradient id="paint45_linear_9428_67191" x1="15.7372" y1="0" x2="15.7372" y2="30.9487" gradientUnits="userSpaceOnUse">
<stop/>
<stop offset="0.669271" stop-color="#454545" stop-opacity="0.45"/>
<stop offset="1" stop-color="#D1D1D1" stop-opacity="0.29"/>
</linearGradient>
<linearGradient id="paint46_linear_9428_67191" x1="15.7372" y1="0" x2="15.7372" y2="30.9487" gradientUnits="userSpaceOnUse">
<stop/>
<stop offset="0.669271" stop-color="#454545" stop-opacity="0.45"/>
<stop offset="1" stop-color="#D1D1D1" stop-opacity="0.29"/>
</linearGradient>
<linearGradient id="paint47_linear_9428_67191" x1="15.7372" y1="0" x2="15.7372" y2="30.9487" gradientUnits="userSpaceOnUse">
<stop/>
<stop offset="0.669271" stop-color="#454545" stop-opacity="0.45"/>
<stop offset="1" stop-color="#D1D1D1" stop-opacity="0.29"/>
</linearGradient>
<linearGradient id="paint48_linear_9428_67191" x1="545.781" y1="183.737" x2="564.413" y2="266.728" gradientUnits="userSpaceOnUse">
<stop stop-color="white" stop-opacity="0"/>
<stop offset="1" stop-color="#F8D33A"/>
</linearGradient>
<linearGradient id="paint49_linear_9428_67191" x1="569.701" y1="204.093" x2="555.446" y2="273.18" gradientUnits="userSpaceOnUse">
<stop stop-color="white" stop-opacity="0"/>
<stop offset="1" stop-color="#F8D33A"/>
</linearGradient>
<linearGradient id="paint50_linear_9428_67191" x1="578.353" y1="236.925" x2="571.911" y2="242.754" gradientUnits="userSpaceOnUse">
<stop stop-color="#F9DA58"/>
<stop offset="1" stop-color="white" stop-opacity="0"/>
</linearGradient>
<linearGradient id="paint51_linear_9428_67191" x1="539.419" y1="269.734" x2="550.191" y2="257.115" gradientUnits="userSpaceOnUse">
<stop stop-color="white" stop-opacity="0"/>
<stop offset="1" stop-color="white"/>
</linearGradient>
<linearGradient id="paint52_linear_9428_67191" x1="571.482" y1="254.025" x2="564.039" y2="259.663" gradientUnits="userSpaceOnUse">
<stop stop-color="white"/>
<stop offset="1" stop-color="white" stop-opacity="0"/>
</linearGradient>
<linearGradient id="paint53_linear_9428_67191" x1="526.713" y1="51.5107" x2="526.687" y2="64.9372" gradientUnits="userSpaceOnUse">
<stop stop-color="#FCEA9C"/>
<stop offset="1" stop-color="#FCEA9C" stop-opacity="0"/>
</linearGradient>
<linearGradient id="paint54_linear_9428_67191" x1="529.037" y1="24.1415" x2="532.367" y2="51.5109" gradientUnits="userSpaceOnUse">
<stop stop-color="#F0B90B"/>
<stop offset="1" stop-color="#F0B90B" stop-opacity="0"/>
</linearGradient>
<linearGradient id="paint55_linear_9428_67191" x1="531.102" y1="51.2007" x2="532.393" y2="75.9881" gradientUnits="userSpaceOnUse">
<stop stop-color="#F0B90B"/>
<stop offset="1" stop-color="#F0B90B" stop-opacity="0"/>
</linearGradient>
<linearGradient id="paint56_linear_9428_67191" x1="517.866" y1="7.64079" x2="538.084" y2="62.0359" gradientUnits="userSpaceOnUse">
<stop stop-color="white" stop-opacity="0"/>
<stop offset="1" stop-color="#F8D33A"/>
</linearGradient>
<linearGradient id="paint57_linear_9428_67191" x1="535.405" y1="4.02598" x2="517.825" y2="55.2048" gradientUnits="userSpaceOnUse">
<stop stop-color="white" stop-opacity="0"/>
<stop offset="1" stop-color="#F8D33A"/>
</linearGradient>
<clipPath id="clip0_9428_67191">
<rect width="640" height="355" fill="white"/>
</clipPath>
</defs>
</svg>